<svg xmlns="http://www.w3.org/2000/svg" width="880" height="520" viewBox="0 0 880 520">
<rect width="100%" height="100%" fill="#ffffff"/>
<text x="24" y="34" font-family="Arial, sans-serif" font-size="24" font-weight="700" fill="#1f2933">Top SHAP Keywords for Return Prediction</text>
<text x="24" y="85" font-family="Arial, sans-serif" font-size="15" fill="#263238">platform</text>
<rect x="250" y="69" width="520" height="20" rx="3" fill="#C74C3C"/>
<text x="778" y="85" font-family="Arial, sans-serif" font-size="14" fill="#374151">5.289</text>
<text x="24" y="119" font-family="Arial, sans-serif" font-size="15" fill="#263238">segment</text>
<rect x="250" y="103" width="479" height="20" rx="3" fill="#C74C3C"/>
<text x="737" y="119" font-family="Arial, sans-serif" font-size="14" fill="#374151">4.879</text>
<text x="24" y="153" font-family="Arial, sans-serif" font-size="15" fill="#263238">oper</text>
<rect x="250" y="137" width="264" height="20" rx="3" fill="#C74C3C"/>
<text x="522" y="153" font-family="Arial, sans-serif" font-size="14" fill="#374151">2.694</text>
<text x="24" y="187" font-family="Arial, sans-serif" font-size="15" fill="#263238">develop</text>
<rect x="250" y="171" width="252" height="20" rx="3" fill="#C74C3C"/>
<text x="510" y="187" font-family="Arial, sans-serif" font-size="14" fill="#374151">2.570</text>
<text x="24" y="221" font-family="Arial, sans-serif" font-size="15" fill="#263238">asset</text>
<rect x="250" y="205" width="236" height="20" rx="3" fill="#C74C3C"/>
<text x="494" y="221" font-family="Arial, sans-serif" font-size="14" fill="#374151">2.401</text>
<text x="24" y="255" font-family="Arial, sans-serif" font-size="15" fill="#263238">includ</text>
<rect x="250" y="239" width="228" height="20" rx="3" fill="#C74C3C"/>
<text x="486" y="255" font-family="Arial, sans-serif" font-size="14" fill="#374151">2.325</text>
<text x="24" y="289" font-family="Arial, sans-serif" font-size="15" fill="#263238">offer</text>
<rect x="250" y="273" width="204" height="20" rx="3" fill="#C74C3C"/>
<text x="462" y="289" font-family="Arial, sans-serif" font-size="14" fill="#374151">2.081</text>
<text x="24" y="323" font-family="Arial, sans-serif" font-size="15" fill="#263238">enabl</text>
<rect x="250" y="307" width="179" height="20" rx="3" fill="#C74C3C"/>
<text x="437" y="323" font-family="Arial, sans-serif" font-size="14" fill="#374151">1.825</text>
<text x="24" y="357" font-family="Arial, sans-serif" font-size="15" fill="#263238">vehicl</text>
<rect x="250" y="341" width="150" height="20" rx="3" fill="#C74C3C"/>
<text x="408" y="357" font-family="Arial, sans-serif" font-size="14" fill="#374151">1.528</text>
<text x="24" y="391" font-family="Arial, sans-serif" font-size="15" fill="#263238">compani</text>
<rect x="250" y="375" width="141" height="20" rx="3" fill="#C74C3C"/>
<text x="399" y="391" font-family="Arial, sans-serif" font-size="14" fill="#374151">1.437</text>
<text x="24" y="425" font-family="Arial, sans-serif" font-size="15" fill="#263238">provid</text>
<rect x="250" y="409" width="136" height="20" rx="3" fill="#C74C3C"/>
<text x="394" y="425" font-family="Arial, sans-serif" font-size="14" fill="#374151">1.393</text>
<text x="24" y="459" font-family="Arial, sans-serif" font-size="15" fill="#263238">own</text>
<rect x="250" y="443" width="126" height="20" rx="3" fill="#C74C3C"/>
<text x="384" y="459" font-family="Arial, sans-serif" font-size="14" fill="#374151">1.291</text>
</svg>